<?xml version="1.0" encoding="utf-8"?>
<!-- Generator: Adobe Illustrator 28.0.0, SVG Export Plug-In . SVG Version: 6.00 Build 0)  -->
<svg version="1.1" id="Layer_1" xmlns="http://www.w3.org/2000/svg" xmlns:xlink="http://www.w3.org/1999/xlink" x="0px" y="0px"
	 viewBox="0 0 627.5 381.5" style="enable-background:new 0 0 627.5 381.5;" xml:space="preserve">
<style type="text/css">
	.st0{fill:#A7A9AC;stroke:#414042;stroke-width:3;stroke-linejoin:round;stroke-miterlimit:10;}
	.st1{fill-rule:evenodd;clip-rule:evenodd;fill:#FBCBC8;}
	.st2{fill:none;stroke:#414141;stroke-width:3;stroke-linejoin:round;stroke-miterlimit:10;}
	.st3{fill:#414141;}
	.st4{font-family:'AdobeClean-Regular';}
	.st5{font-size:28px;}
	.st6{fill-rule:evenodd;clip-rule:evenodd;fill:#C1E2C8;}
	.st7{fill-rule:evenodd;clip-rule:evenodd;fill:#FFF6D5;}
	.st8{fill-rule:evenodd;clip-rule:evenodd;fill:#D4EAF9;}
	.st9{fill:none;stroke:#6D6E71;stroke-width:1.5;stroke-linejoin:round;stroke-miterlimit:10;}
	.st10{fill-rule:evenodd;clip-rule:evenodd;fill:#DAD9D9;}
</style>
<path class="st0" d="M1.5,19.64C1.5,9.62,9.62,1.5,19.64,1.5h165.71c10.02,0,18.14,8.12,18.14,18.14v342.21
	c0,10.02-8.12,18.14-18.14,18.14H19.64C9.62,380,1.5,371.88,1.5,361.86V19.64z"/>
<path class="st1" d="M12.5,67c0-6.63,5.37-12,12-12h156c6.63,0,12,5.37,12,12v48c0,6.63-5.37,12-12,12h-156c-6.63,0-12-5.37-12-12
	V67z"/>
<path class="st2" d="M12.5,67c0-6.63,5.37-12,12-12h156c6.63,0,12,5.37,12,12v48c0,6.63-5.37,12-12,12h-156c-6.63,0-12-5.37-12-12
	V67z"/>
<text transform="matrix(1 0 0 1 76.0625 101)"><tspan x="0" y="0" class="st3 st4 st5">D</tspan><tspan x="18.14" y="0" class="st3 st4 st5">a</tspan><tspan x="31.42" y="0" class="st3 st4 st5">t</tspan><tspan x="39.65" y="0" class="st3 st4 st5">a</tspan></text>
<path class="st6" d="M12.5,144.5c0-6.63,5.37-12,12-12h156c6.63,0,12,5.37,12,12v48c0,6.63-5.37,12-12,12h-156
	c-6.63,0-12-5.37-12-12V144.5z"/>
<path class="st2" d="M12.5,144.5c0-6.63,5.37-12,12-12h156c6.63,0,12,5.37,12,12v48c0,6.63-5.37,12-12,12h-156
	c-6.63,0-12-5.37-12-12V144.5z"/>
<text transform="matrix(1 0 0 1 73.375 178.5)"><tspan x="0" y="0" class="st3 st4 st5">M</tspan><tspan x="23.13" y="0" class="st3 st4 st5">ar</tspan><tspan x="45.25" y="0" class="st3 st4 st5">k</tspan></text>
<path class="st7" d="M12.5,222c0-6.63,5.37-12,12-12h156c6.63,0,12,5.37,12,12v48c0,6.63-5.37,12-12,12h-156c-6.63,0-12-5.37-12-12
	V222z"/>
<path class="st2" d="M12.5,222c0-6.63,5.37-12,12-12h156c6.63,0,12,5.37,12,12v48c0,6.63-5.37,12-12,12h-156c-6.63,0-12-5.37-12-12
	V222z"/>
<text transform="matrix(1 0 0 1 55.5625 256)"><tspan x="0" y="0" class="st3 st4 st5">C</tspan><tspan x="15.4" y="0" class="st3 st4 st5">ha</tspan><tspan x="43.68" y="0" class="st3 st4 st5">nn</tspan><tspan x="73.69" y="0" class="st3 st4 st5">el</tspan></text>
<path class="st8" d="M12.5,299c0-6.63,5.37-12,12-12h156c6.63,0,12,5.37,12,12v48c0,6.63-5.37,12-12,12h-156c-6.63,0-12-5.37-12-12
	V299z"/>
<path class="st2" d="M12.5,299c0-6.63,5.37-12,12-12h156c6.63,0,12,5.37,12,12v48c0,6.63-5.37,12-12,12h-156c-6.63,0-12-5.37-12-12
	V299z"/>
<text transform="matrix(1 0 0 1 44.4375 333.5)"><tspan x="0" y="0" class="st3 st4 st5">T</tspan><tspan x="14.5" y="0" class="st3 st4 st5">ra</tspan><tspan x="36.62" y="0" class="st3 st4 st5">n</tspan><tspan x="51.6" y="0" class="st3 st4 st5">s</tspan><tspan x="62.21" y="0" class="st3 st4 st5">f</tspan><tspan x="69.21" y="0" class="st3 st4 st5">o</tspan><tspan x="83.97" y="0" class="st3 st4 st5">r</tspan><tspan x="92.85" y="0" class="st3 st4 st5">m</tspan></text>
<path class="st1" d="M239,73c0-4.97,4.03-9,9-9h162c4.97,0,9,4.03,9,9v36c0,4.97-4.03,9-9,9H248c-4.97,0-9-4.03-9-9V73z"/>
<path class="st2" d="M239,73c0-4.97,4.03-9,9-9h162c4.97,0,9,4.03,9,9v36c0,4.97-4.03,9-9,9H248c-4.97,0-9-4.03-9-9V73z"/>
<text transform="matrix(1 0 0 1 279.25 101)"><tspan x="0" y="0" class="st3 st4 st5">A</tspan><tspan x="16.38" y="0" class="st3 st4 st5">tt</tspan><tspan x="32.56" y="0" class="st3 st4 st5">r</tspan><tspan x="41.44" y="0" class="st3 st4 st5">i</tspan><tspan x="47.68" y="0" class="st3 st4 st5">b</tspan><tspan x="62.41" y="0" class="st3 st4 st5">u</tspan><tspan x="77.17" y="0" class="st3 st4 st5">t</tspan><tspan x="85.4" y="0" class="st3 st4 st5">e</tspan></text>
<path class="st1" d="M446,73c0-4.97,4.03-9,9-9h162c4.97,0,9,4.03,9,9v36c0,4.97-4.03,9-9,9H455c-4.97,0-9-4.03-9-9V73z"/>
<path class="st2" d="M446,73c0-4.97,4.03-9,9-9h162c4.97,0,9,4.03,9,9v36c0,4.97-4.03,9-9,9H455c-4.97,0-9-4.03-9-9V73z"/>
<text transform="matrix(1 0 0 1 506.8125 101)"><tspan x="0" y="0" class="st3 st4 st5">Sc</tspan><tspan x="25.14" y="0" class="st3 st4 st5">a</tspan><tspan x="38.39" y="0" class="st3 st4 st5">le</tspan></text>
<path class="st7" d="M239,228c0-4.97,4.03-9,9-9h162c4.97,0,9,4.03,9,9v36c0,4.97-4.03,9-9,9H248c-4.97,0-9-4.03-9-9V228z"/>
<path class="st2" d="M239,228c0-4.97,4.03-9,9-9h162c4.97,0,9,4.03,9,9v36c0,4.97-4.03,9-9,9H248c-4.97,0-9-4.03-9-9V228z"/>
<text transform="matrix(1 0 0 1 282.25 256)"><tspan x="0" y="0" class="st3 st4 st5">M</tspan><tspan x="23.13" y="0" class="st3 st4 st5">a</tspan><tspan x="36.37" y="0" class="st3 st4 st5">t</tspan><tspan x="44.6" y="0" class="st3 st4 st5">e</tspan><tspan x="58.1" y="0" class="st3 st4 st5">r</tspan><tspan x="66.98" y="0" class="st3 st4 st5">i</tspan><tspan x="73.22" y="0" class="st3 st4 st5">a</tspan><tspan x="86.46" y="0" class="st3 st4 st5">l</tspan></text>
<path class="st7" d="M446,228c0-4.97,4.03-9,9-9h162c4.97,0,9,4.03,9,9v36c0,4.97-4.03,9-9,9H455c-4.97,0-9-4.03-9-9V228z"/>
<path class="st2" d="M446,228c0-4.97,4.03-9,9-9h162c4.97,0,9,4.03,9,9v36c0,4.97-4.03,9-9,9H455c-4.97,0-9-4.03-9-9V228z"/>
<text transform="matrix(1 0 0 1 493.4375 256)"><tspan x="0" y="0" class="st3 st4 st5">Tex</tspan><tspan x="39.98" y="0" class="st3 st4 st5">t</tspan><tspan x="48.22" y="0" class="st3 st4 st5">ur</tspan><tspan x="71.85" y="0" class="st3 st4 st5">e</tspan></text>
<line class="st9" x1="192.75" y1="91.25" x2="239.13" y2="91.25"/>
<line class="st9" x1="192.75" y1="246.25" x2="239.13" y2="246.25"/>
<line class="st9" x1="419.25" y1="91.25" x2="446.5" y2="91.25"/>
<line class="st9" x1="419.25" y1="246.25" x2="446.5" y2="246.25"/>
<text transform="matrix(1 0 0 1 71.5625 37.5)"><tspan x="0" y="0" class="st4 st5">L</tspan><tspan x="13.38" y="0" class="st4 st5">ayer</tspan></text>
<path class="st10" d="M239,335c0-4.97,4.03-9,9-9h162c4.97,0,9,4.03,9,9v36c0,4.97-4.03,9-9,9H248c-4.97,0-9-4.03-9-9V335z"/>
<path class="st2" d="M239,335c0-4.97,4.03-9,9-9h162c4.97,0,9,4.03,9,9v36c0,4.97-4.03,9-9,9H248c-4.97,0-9-4.03-9-9V335z"/>
<text transform="matrix(1 0 0 1 292.8125 363)"><tspan x="0" y="0" class="st3 st4 st5">C</tspan><tspan x="15.4" y="0" class="st3 st4 st5">o</tspan><tspan x="30.16" y="0" class="st3 st4 st5">n</tspan><tspan x="45.16" y="0" class="st3 st4 st5">fi</tspan><tspan x="58.8" y="0" class="st3 st4 st5">g</tspan></text>
<path class="st10" d="M446,335c0-4.97,4.03-9,9-9h162c4.97,0,9,4.03,9,9v36c0,4.97-4.03,9-9,9H455c-4.97,0-9-4.03-9-9V335z"/>
<path class="st2" d="M446,335c0-4.97,4.03-9,9-9h162c4.97,0,9,4.03,9,9v36c0,4.97-4.03,9-9,9H455c-4.97,0-9-4.03-9-9V335z"/>
<text transform="matrix(1 0 0 1 495.5 363)"><tspan x="0" y="0" class="st3 st4 st5">R</tspan><tspan x="15.76" y="0" class="st3 st4 st5">en</tspan><tspan x="44.24" y="0" class="st3 st4 st5">d</tspan><tspan x="58.88" y="0" class="st3 st4 st5">er</tspan></text>
</svg>
