<?xml version="1.0" encoding="utf-8"?>
<!-- Generator: Adobe Illustrator 28.0.0, SVG Export Plug-In . SVG Version: 6.00 Build 0)  -->
<svg version="1.1" id="Layer_2" xmlns="http://www.w3.org/2000/svg" xmlns:xlink="http://www.w3.org/1999/xlink" x="0px" y="0px"
	 viewBox="0 0 266.44 174.79" style="enable-background:new 0 0 266.44 174.79;" xml:space="preserve">
<style type="text/css">
	.st0{fill:#EAB26A;stroke:#000000;stroke-width:3;stroke-miterlimit:10;}
	.st1{fill:#E7E3D5;stroke:#000000;stroke-miterlimit:10;}
	.st2{fill:none;}
	.st3{clip-path:url(#SVGID_00000033351737127815199880000003778484801123623354_);}
	.st4{clip-path:url(#SVGID_00000118361498812923655220000007194488865021266101_);}
</style>
<ellipse class="st0" cx="128.44" cy="116.8" rx="85.04" ry="56.69"/>
<g>
	<g id="_x3C_Grid_Repeat_x3E__00000158015703993971063360000003556072924757340809_">
		<ellipse class="st1" cx="87.93" cy="83.75" rx="8.5" ry="5.67"/>
	</g>
	<g id="_x3C_Grid_Repeat_x3E__00000183941494360285323210000010212301401295122600_">
		<ellipse class="st1" cx="114.94" cy="83.75" rx="8.5" ry="5.67"/>
	</g>
	<g id="_x3C_Grid_Repeat_x3E__00000144324477296708961600000009176848907883230353_">
		<ellipse class="st1" cx="141.95" cy="83.75" rx="8.5" ry="5.67"/>
	</g>
	<g id="_x3C_Grid_Repeat_x3E__00000094587097338303539790000006428908957010516619_">
		<ellipse class="st1" cx="168.96" cy="83.75" rx="8.5" ry="5.67"/>
	</g>
	<g id="_x3C_Grid_Repeat_x3E__00000096039182875042340760000001186030068795573178_">
		<ellipse class="st1" cx="87.93" cy="111.7" rx="8.5" ry="5.67"/>
	</g>
	<g id="_x3C_Grid_Repeat_x3E__00000029737817455955457210000007304637272148875414_">
		<ellipse class="st1" cx="114.94" cy="111.7" rx="8.5" ry="5.67"/>
	</g>
	<g id="_x3C_Grid_Repeat_x3E__00000171714936824084681450000007048183325009896877_">
		<ellipse class="st1" cx="141.95" cy="111.7" rx="8.5" ry="5.67"/>
	</g>
	<g id="_x3C_Grid_Repeat_x3E__00000029018208309969250090000003332093270421533837_">
		<ellipse class="st1" cx="168.96" cy="111.7" rx="8.5" ry="5.67"/>
	</g>
</g>
<rect x="79.43" y="78.09" class="st2" width="98.03" height="41.22"/>
<ellipse class="st1" cx="75.01" cy="97.14" rx="8.5" ry="5.67"/>
<ellipse class="st1" cx="102.02" cy="97.14" rx="8.5" ry="5.67"/>
<ellipse class="st1" cx="129.02" cy="97.14" rx="8.5" ry="5.67"/>
<ellipse class="st1" cx="156.03" cy="97.14" rx="8.5" ry="5.67"/>
<ellipse class="st1" cx="183.04" cy="97.14" rx="8.5" ry="5.67"/>
<rect x="66.5" y="91.47" class="st2" width="129.15" height="14.46"/>
<path class="st0" d="M70.25,30.04V1.71C54.6,1.71,41.9,14.4,41.9,30.06c0,15.66,12.69,28.35,28.35,28.35S98.6,45.71,98.6,30.06
	c0,0,0-0.01,0-0.01H70.25z"/>
<path class="st0" d="M186.64,30.04V1.71c15.66,0,28.35,12.69,28.35,28.35c0,15.66-12.69,28.35-28.35,28.35s-28.35-12.69-28.35-28.35
	c0,0,0-0.01,0-0.01H186.64z"/>
<g id="_x3C_Grid_Repeat_x3E__00000124130992349091320960000003320172102440408205_">
	<ellipse cx="115.09" cy="44.83" rx="5.67" ry="8.5"/>
</g>
<g id="_x3C_Grid_Repeat_x3E__00000020370654532688161890000016361343458203843490_">
	<ellipse cx="142.76" cy="44.83" rx="5.67" ry="8.5"/>
</g>
<g>
	<g id="_x3C_Mirror_Repeat_x3E__00000125600187024884884200000008558556255348056743_">
		<g>
			<defs>
				<rect id="SVGID_1_" x="7.22" y="76.59" width="46.19" height="93.05"/>
			</defs>
			<clipPath id="SVGID_00000069373987940067771800000009673270899471595966_">
				<use xlink:href="#SVGID_1_"  style="overflow:visible;"/>
			</clipPath>
			
				<g id="_x3C_Grid_Repeat_x3E__00000102525339351276641610000009464612726347546512_" style="clip-path:url(#SVGID_00000069373987940067771800000009673270899471595966_);">
				<ellipse class="st0" cx="25.72" cy="83.75" rx="8.5" ry="5.67"/>
			</g>
			
				<g id="_x3C_Grid_Repeat_x3E__00000065033064319565183960000015063030115182908082_" style="clip-path:url(#SVGID_00000069373987940067771800000009673270899471595966_);">
				<ellipse class="st0" cx="17.22" cy="110.69" rx="8.5" ry="5.67"/>
			</g>
			
				<g id="_x3C_Grid_Repeat_x3E__00000077302745846516541800000008615965689827097490_" style="clip-path:url(#SVGID_00000069373987940067771800000009673270899471595966_);">
				<ellipse class="st0" cx="25.72" cy="137.63" rx="8.5" ry="5.67"/>
			</g>
			
				<g id="_x3C_Grid_Repeat_x3E__00000070826115746377585280000002937204886530997911_" style="clip-path:url(#SVGID_00000069373987940067771800000009673270899471595966_);">
				<ellipse class="st0" cx="43.4" cy="162.47" rx="8.5" ry="5.67"/>
			</g>
		</g>
	</g>
	<g id="_x3C_Mirror_Repeat_x3E__00000103245335922773663710000008875604701254225833_">
		<g>
			<defs>
				<rect id="SVGID_00000139295079491794923400000008875193885235432326_" x="204.2" y="76.59" width="46.19" height="93.05"/>
			</defs>
			<clipPath id="SVGID_00000148645947006007439580000011579920184833693366_">
				<use xlink:href="#SVGID_00000139295079491794923400000008875193885235432326_"  style="overflow:visible;"/>
			</clipPath>
			
				<g id="_x3C_Grid_Repeat_x3E__00000115478609410268616640000013810331888967294351_" style="clip-path:url(#SVGID_00000148645947006007439580000011579920184833693366_);">
				<ellipse class="st0" cx="231.88" cy="83.75" rx="8.5" ry="5.67"/>
			</g>
			
				<g id="_x3C_Grid_Repeat_x3E__00000036246111104578675400000017060969819450097566_" style="clip-path:url(#SVGID_00000148645947006007439580000011579920184833693366_);">
				<ellipse class="st0" cx="240.38" cy="110.69" rx="8.5" ry="5.67"/>
			</g>
			
				<g id="_x3C_Grid_Repeat_x3E__00000078032081199835128450000017288287284048412848_" style="clip-path:url(#SVGID_00000148645947006007439580000011579920184833693366_);">
				<ellipse class="st0" cx="231.88" cy="137.63" rx="8.5" ry="5.67"/>
			</g>
			
				<g id="_x3C_Grid_Repeat_x3E__00000011718799065259240010000009930529152416821436_" style="clip-path:url(#SVGID_00000148645947006007439580000011579920184833693366_);">
				<ellipse class="st0" cx="214.2" cy="162.47" rx="8.5" ry="5.67"/>
			</g>
		</g>
	</g>
</g>
</svg>
